<svg version="1.1" xmlns="http://www.w3.org/2000/svg" viewBox="0 0 22.929817270542117 99.12384028378007" width="22.929817270542117" height="99.12384028378007">
  <!-- svg-source:excalidraw -->
  
  <defs>
    <style class="style-fonts">
      
    </style>
    
  </defs>
  <rect x="0" y="0" width="22.929817270542117" height="99.12384028378007" fill="#ffffff"></rect><g stroke-linecap="round"><g transform="translate(10.389610226615332 88.089232390179) rotate(0 0.3397403839899198 -38.07215678067445)"><path d="M2.54 1.03 C2.57 -12.31, 1.61 -65.18, 1.44 -78.09 M0.47 -0.87 C0.09 -14.09, -0.33 -63.42, -0.39 -75.52" stroke="#1e1e1e" stroke-width="2" fill="none"></path></g><g transform="translate(10.389610226615332 88.089232390179) rotate(0 0.3397403839899198 -38.07215678067445)"><path d="M-2.26 -75.28 L6.16 -63.01 L-5.03 -63.77 L-1.62 -76.33" stroke="none" stroke-width="0" fill="#1e1e1e" fill-rule="evenodd"></path><path d="M0.16 -75.11 C0.88 -70.47, 4 -65.88, 5.03 -61.04 M-0.33 -75.78 C0.84 -72.36, 2.08 -69.47, 6.57 -62.56 M5.77 -61.06 C3.89 -62.44, 0.45 -61.35, -7.05 -60.99 M5.68 -61.52 C2.08 -61.25, -1.57 -61.31, -6.44 -61.35 M-6.43 -62.79 C-5.25 -64.95, -2.24 -69.63, 0.2 -76.42 M-6.65 -61.18 C-4.72 -67.09, -1.58 -73.37, -0.44 -76.2 M-0.39 -75.52 C-0.39 -75.52, -0.39 -75.52, -0.39 -75.52 M-0.39 -75.52 C-0.39 -75.52, -0.39 -75.52, -0.39 -75.52" stroke="#1e1e1e" stroke-width="2" fill="none"></path></g></g><mask></mask></svg>